<?xml version="1.0" standalone="no"?>
<!DOCTYPE svg PUBLIC "-//W3C//DTD SVG 20010904//EN"
 "http://www.w3.org/TR/2001/REC-SVG-20010904/DTD/svg10.dtd">
<svg version="1.0" xmlns="http://www.w3.org/2000/svg"
 width="700.000000pt" height="550.000000pt" viewBox="0 0 700.000000 550.000000"
 preserveAspectRatio="xMidYMid meet">

<g transform="translate(0.000000,550.000000) scale(0.100000,-0.100000)"
fill="white" stroke="none">
<path d="M5711 5108 c-12 -128 -24 -248 -28 -265 l-5 -33 -302 0 -303 0 -22
-227 c-12 -126 -24 -240 -27 -255 l-5 -28 301 1 c167 0 304 -2 306 -3 2 -2 -8
-109 -21 -238 -14 -129 -25 -245 -25 -257 l0 -23 295 0 c229 0 295 3 295 13 0
6 11 121 25 255 14 134 25 245 25 248 0 2 140 4 310 4 l310 0 0 53 c0 28 9
135 20 237 11 102 20 193 20 202 0 16 -22 18 -301 17 -166 0 -303 1 -304 3 -2
3 37 397 48 491 l5 37 -297 0 -297 0 -23 -232z"/>
<path d="M911 3113 c-123 -406 -230 -752 -237 -770 l-12 -32 168 -3 c93 -2
171 -6 174 -9 4 -3 -5 -39 -18 -80 -14 -41 -127 -409 -251 -819 -125 -410
-244 -803 -266 -874 -21 -70 -39 -132 -39 -137 0 -5 251 -9 583 -9 l582 0 203
533 c112 292 210 546 217 562 11 26 13 -53 14 -532 l1 -563 533 0 532 0 159
418 c239 628 277 722 287 722 5 0 9 -227 9 -570 l0 -570 614 0 615 0 5 43 c4
23 31 359 62 747 30 388 61 777 68 865 7 88 11 163 9 168 -2 4 -85 7 -184 7
-102 0 -179 4 -179 9 0 17 119 1535 124 1584 l5 47 -767 0 -768 0 -76 -197
c-43 -109 -93 -236 -112 -283 -19 -47 -85 -215 -146 -375 -61 -159 -115 -294
-120 -299 -7 -7 -10 194 -10 572 l0 582 -778 0 -777 0 -224 -737z"/>
</g>
</svg>
